<svg xmlns="http://www.w3.org/2000/svg" aria-hidden="true" style="position:absolute;width:0;height:0;overflow:hidden"><defs>
<symbol id="icon-chevron-down" viewBox="0 0 30 32"><path d="M15.059 21.082c-.376 0-.753-.188-.941-.376l-7.529-7.529c-.565-.565-.565-1.318 0-1.882s1.506-.565 2.071 0l6.4 6.4 6.588-6.4c.565-.565 1.506-.565 2.071 0s.565 1.506 0 2.071l-7.529 7.529c-.376.188-.753.188-1.129.188z" opacity=".8"/></symbol><symbol id="icon-search" viewBox="0 0 32 32"><path d="M13.44 1.92C7.425 1.92 2.56 6.785 2.56 12.8s4.865 10.88 10.88 10.88c2.147 0 4.135-.63 5.82-1.7l7.86 7.86 2.72-2.72-7.76-7.74a10.805 10.805 0 0 0 2.24-6.58c0-6.015-4.865-10.88-10.88-10.88zm0 2.56c4.607 0 8.32 3.713 8.32 8.32s-3.712 8.32-8.32 8.32c-4.607 0-8.32-3.712-8.32-8.32s3.713-8.32 8.32-8.32z"/></symbol></defs></svg>
